<svg width="112" height="36" viewBox="0 0 112 36" fill="none" xmlns="http://www.w3.org/2000/svg">
<g clip-path="url(#clip0)">
<path d="M59.0103 9.14553C59.0103 10.3913 57.9965 11.3944 56.7385 11.3944C55.4804 11.3944 54.4674 10.3913 54.4674 9.14553C54.4674 7.89979 55.4458 6.89669 56.7385 6.89669C58.0321 6.93125 59.0103 7.9347 59.0103 9.14553ZM49.6452 13.6785V14.2322C49.6452 14.2322 48.5624 12.8475 46.256 12.8475C42.4476 12.8475 39.4769 15.7196 39.4769 19.6984C39.4769 23.6431 42.4127 26.5494 46.256 26.5494C48.5973 26.5494 49.6452 25.1308 49.6452 25.1308V25.7188C49.6452 25.9956 49.8554 26.2027 50.1346 26.2027H52.9646V13.1925H50.1346C49.8554 13.1935 49.6452 13.4362 49.6452 13.6785ZM49.6452 22.0168C49.1216 22.7782 48.073 23.4357 46.8152 23.4357C44.5791 23.4357 42.8665 22.0517 42.8665 19.6984C42.8665 17.3456 44.5791 15.9615 46.8152 15.9615C48.0384 15.9615 49.1565 16.6536 49.6452 17.3801V22.0168ZM55.0615 13.1935H58.4158V26.2037H55.0615V13.1935ZM105.17 12.8472C102.863 12.8472 101.78 14.2319 101.78 14.2319V6.93125H98.4256V26.2037H101.256C101.536 26.2037 101.745 25.9614 101.745 25.7191V25.1311C101.745 25.1311 102.829 26.5497 105.134 26.5497C108.943 26.5497 111.913 23.6441 111.913 19.6995C111.913 15.7548 108.943 12.8472 105.17 12.8472ZM104.611 23.4008C103.317 23.4008 102.304 22.744 101.78 21.9822V17.3456C102.304 16.6535 103.422 15.927 104.611 15.927C106.847 15.927 108.559 17.311 108.559 19.6639C108.559 22.0168 106.847 23.4008 104.611 23.4008ZM96.6788 18.488V26.2383H93.3239V18.8682C93.3239 16.7234 92.625 15.8579 90.7393 15.8579C89.7263 15.8579 88.6776 16.377 88.0126 17.1385V26.2041H84.659V13.1939H87.3138C87.5934 13.1939 87.8032 13.4362 87.8032 13.6785V14.2322C88.7817 13.2284 90.0743 12.8475 91.3669 12.8475C92.8348 12.8475 94.058 13.2633 95.0364 14.0936C96.224 15.0625 96.6788 16.3079 96.6788 18.488ZM76.5161 12.8472C74.2105 12.8472 73.127 14.2319 73.127 14.2319V6.93125H69.7727V26.2037H72.6026C72.8822 26.2037 73.092 25.9614 73.092 25.7191V25.1311C73.092 25.1311 74.1756 26.5497 76.4812 26.5497C80.2903 26.5497 83.2603 23.6441 83.2603 19.6995C83.2952 15.7545 80.3253 12.8472 76.5161 12.8472ZM75.9569 23.4008C74.6643 23.4008 73.6513 22.744 73.127 21.9822V17.3456C73.6513 16.6535 74.7694 15.927 75.9569 15.927C78.1938 15.927 79.9057 17.311 79.9057 19.6639C79.9057 22.0168 78.1938 23.4008 75.9569 23.4008ZM66.8722 12.8472C67.8852 12.8472 68.4095 13.0207 68.4095 13.0207V16.0998C68.4095 16.0998 65.6141 15.1655 63.8673 17.1382V26.2379H60.5123V13.1935H63.343C63.6226 13.1935 63.8317 13.4358 63.8317 13.6781V14.2319C64.4614 13.505 65.8242 12.8472 66.8722 12.8472ZM32.0346 25.0271C31.8601 24.612 31.6852 24.1623 31.5107 23.7813C31.2307 23.1588 30.9511 22.5702 30.7071 22.0168L30.6722 21.9822C28.2607 16.7918 25.6755 11.533 22.9495 6.34329L22.8448 6.1352C22.5581 5.59683 22.2787 5.05468 22.0067 4.50889C21.6569 3.88567 21.3078 3.22892 20.7486 2.6057C19.6305 1.22169 18.023 0.460205 16.3111 0.460205C14.5636 0.460205 12.9914 1.22169 11.8388 2.53623C11.3144 3.15875 10.9298 3.8162 10.5807 4.43942C10.308 4.98487 10.0286 5.52701 9.74254 6.06573L9.63747 6.27381C6.94678 11.4635 4.32626 16.7227 1.91518 21.9127L1.87993 21.9815C1.63557 22.5359 1.35561 23.1239 1.076 23.7461C0.901462 24.127 0.726923 24.5421 0.552385 24.9918C0.0978861 26.2718 -0.0421006 27.483 0.133136 28.7291C0.51747 31.3243 2.26425 33.5033 4.67568 34.4729C5.58433 34.8538 6.52788 35.0266 7.506 35.0266C7.78561 35.0266 8.1347 34.992 8.41466 34.9571C9.56801 34.8189 10.7559 34.4386 11.9093 33.7812C13.3419 32.9851 14.7047 31.8438 16.242 30.1829C17.7793 31.8438 19.1771 32.9851 20.5748 33.7812C21.7285 34.4386 22.916 34.8189 24.069 34.9571C24.3486 34.9924 24.6984 35.0266 24.978 35.0266C25.9565 35.0266 26.9346 34.8538 27.808 34.4729C30.2543 33.5033 31.9662 31.2897 32.3509 28.7291C32.6284 27.5182 32.4888 26.3078 32.0346 25.0271ZM16.2759 26.8262C14.3888 24.4734 13.1656 22.2591 12.7467 20.3911C12.5722 19.5951 12.5369 18.9031 12.642 18.2802C12.7114 17.7265 12.9216 17.2419 13.2012 16.8267C13.8651 15.8931 14.9832 15.3045 16.2762 15.3045C17.5696 15.3045 18.7226 15.8582 19.3516 16.8267C19.6312 17.2419 19.8406 17.7268 19.9112 18.2802C20.0155 18.9034 19.9806 19.6297 19.8061 20.3911C19.3855 22.2245 18.1623 24.4391 16.2759 26.8262ZM30.2173 28.4526C29.973 30.2517 28.7498 31.8092 27.0379 32.5012C26.1994 32.8469 25.2904 32.9509 24.3825 32.8469C23.5091 32.7428 22.635 32.466 21.7271 31.9475C20.469 31.2548 19.2113 30.1829 17.7434 28.5908C20.0494 25.7886 21.4471 23.2276 21.9714 20.9445C22.2161 19.8716 22.2514 18.9031 22.146 18.003C22.0067 17.1382 21.6918 16.3421 21.2027 15.6501C20.1189 14.0926 18.3016 13.1935 16.2755 13.1935C14.2495 13.1935 12.4322 14.1278 11.349 15.6501C10.8599 16.3421 10.5451 17.1382 10.4054 18.003C10.2658 18.9031 10.3004 19.9062 10.58 20.9445C11.1039 23.2276 12.5366 25.8228 14.8077 28.6254C13.375 30.2171 12.0821 31.2901 10.824 31.9821C9.91533 32.5012 9.04229 32.7781 8.1689 32.8815C7.22569 32.9855 6.3167 32.8469 5.51312 32.5358C3.80125 31.8438 2.57808 30.2863 2.33372 28.4871C2.229 27.6223 2.29847 26.7574 2.64824 25.7886C2.75262 25.4422 2.92785 25.0966 3.10239 24.6814C3.34709 24.1277 3.62601 23.539 3.90597 22.9511L3.94123 22.8823C6.35196 17.7265 8.93757 12.4673 11.6283 7.34673L11.733 7.13865C12.0129 6.62016 12.2926 6.06642 12.5718 5.54724C12.8514 4.9935 13.1656 4.47432 13.5503 4.02428C14.284 3.1947 15.2621 2.74431 16.3457 2.74431C17.4292 2.74431 18.4073 3.1947 19.1411 4.02428C19.5258 4.47536 19.8399 4.99454 20.1196 5.54724C20.3995 6.06642 20.6791 6.62016 20.958 7.13865L21.0631 7.34673C23.7128 12.4886 26.264 17.6795 28.7156 22.9169V22.9514C28.9955 23.5059 29.2399 24.128 29.5195 24.6825C29.694 25.0969 29.8689 25.4426 29.9737 25.7889C30.2526 26.6876 30.3573 27.5532 30.2173 28.4526Z" fill="#9E9E9E"/>
</g>
<defs>
<clipPath id="clip0">
<rect width="111.886" height="34.5664" fill="white" transform="translate(0.043457 0.460571)"/>
</clipPath>
</defs>
</svg>
