<svg width="49" height="54" viewBox="0 0 49 54" fill="none" xmlns="http://www.w3.org/2000/svg">
<path d="M0.926688 18.5738L23.2119 32.7553C23.5384 32.9648 23.9181 33.0761 24.3059 33.0761C24.6938 33.0761 25.0735 32.9648 25.3999 32.7553L47.6852 18.5738C47.9695 18.3902 48.2033 18.1382 48.3652 17.8409C48.527 17.5436 48.6118 17.2105 48.6118 16.872C48.6118 16.5335 48.527 16.2004 48.3652 15.9032C48.2033 15.6059 47.9695 15.3539 47.6852 15.1703L25.3999 0.988744C25.0735 0.779303 24.6938 0.667969 24.3059 0.667969C23.9181 0.667969 23.5384 0.779303 23.2119 0.988744L0.926688 15.1703C0.642354 15.3539 0.40857 15.6059 0.246692 15.9032C0.084813 16.2004 0 16.5335 0 16.872C0 17.2105 0.084813 17.5436 0.246692 17.8409C0.40857 18.1382 0.642354 18.3902 0.926688 18.5738ZM24.3059 5.10138L42.8229 16.872L24.3059 28.6427L5.78892 16.872L24.3059 5.10138Z" fill="#F7C948"/>
<path d="M45.4972 25.2999L24.3059 38.7723L3.11469 25.2999C2.6641 25.0429 2.13207 24.9685 1.62825 25.092C1.12444 25.2156 0.687217 25.5278 0.406698 25.9641C0.126179 26.4005 0.023736 26.9278 0.120479 27.4375C0.217223 27.9471 0.505781 28.4003 0.926689 28.7035L23.2119 42.885C23.5384 43.0944 23.9181 43.2058 24.3059 43.2058C24.6938 43.2058 25.0735 43.0944 25.3999 42.885L47.6852 28.7035C48.1061 28.4003 48.3946 27.9471 48.4914 27.4375C48.5881 26.9278 48.4857 26.4005 48.2051 25.9641C47.9246 25.5278 47.4874 25.2156 46.9836 25.092C46.4798 24.9685 45.9477 25.0429 45.4972 25.2999Z" fill="#F7C948"/>
<path d="M45.4972 35.4295L24.3059 48.902L3.11469 35.4295C2.6641 35.1725 2.13207 35.0981 1.62825 35.2217C1.12444 35.3453 0.687217 35.6574 0.406698 36.0938C0.126179 36.5301 0.023736 37.0575 0.120479 37.5671C0.217223 38.0768 0.505781 38.5299 0.926689 38.8331L23.2119 53.0146C23.5384 53.2241 23.9181 53.3354 24.3059 53.3354C24.6938 53.3354 25.0735 53.2241 25.3999 53.0146L47.6852 38.8331C48.1061 38.5299 48.3946 38.0768 48.4914 37.5671C48.5881 37.0575 48.4857 36.5301 48.2051 36.0938C47.9246 35.6574 47.4874 35.3453 46.9836 35.2217C46.4798 35.0981 45.9477 35.1725 45.4972 35.4295Z" fill="#F7C948"/>
</svg>
