<svg width="40" height="50" viewBox="0 0 40 50" fill="none" xmlns="http://www.w3.org/2000/svg">
<path d="M35.2471 18.8097H34.2857V15.3768C34.2857 11.6406 32.8988 8.06919 30.3807 5.32038C27.8286 2.53467 24.3869 0.904908 20.6898 0.730622C13.3333 0.38467 6.9731 5.59372 5.87571 12.847C5.75762 13.6285 5.985 14.4199 6.49952 15.018C7.01048 15.612 7.75238 15.9525 8.53476 15.9525H8.87714C10.2017 15.9525 11.3212 14.974 11.5383 13.6254C12.244 9.24538 16.1293 6.15991 20.5726 6.44729C25.0579 6.73777 28.5714 10.6378 28.5714 15.3263V18.8097H4.75309C2.13214 18.8097 0 20.9418 0 23.5628V44.533C0 47.1537 2.13214 49.2859 4.75309 49.2859H35.2471C37.8679 49.2859 40 47.1535 40 44.5328V23.5625C40 20.9418 37.8679 18.8097 35.2471 18.8097ZM20.6957 4.54657C15.2693 4.19443 10.5205 7.96776 9.65762 13.3225C9.58881 13.7494 9.26786 14.0478 8.87714 14.0478H8.53476C8.22381 14.0478 8.03095 13.8773 7.94381 13.7759C7.85405 13.6716 7.71095 13.4497 7.75928 13.1316C8.71024 6.84681 14.2271 2.33372 20.6002 2.63324C23.7917 2.78348 26.7664 4.19491 28.9764 6.60705C31.1717 9.00372 32.381 12.1182 32.381 15.3768V18.8097H30.4762V15.3263C30.4762 9.63681 26.18 4.90157 20.6957 4.54657ZM38.0952 44.5328C38.0952 46.1032 36.8176 47.3811 35.2471 47.3811H4.75309C3.18238 47.3811 1.90476 46.1035 1.90476 44.5328V23.5625C1.90476 21.9921 3.18238 20.7144 4.75309 20.7144H35.2471C36.8176 20.7144 38.0952 21.9921 38.0952 23.5625V44.5328Z" fill="#F7C948"/>
<path d="M23.1648 31.8818C24.1421 31.009 24.7619 29.744 24.7619 28.3335C24.7619 25.7078 22.6257 23.5716 20 23.5716C17.3743 23.5716 15.2381 25.7078 15.2381 28.3335C15.2381 29.7437 15.8579 31.009 16.8352 31.8818C14.21 33.0859 12.381 35.7373 12.381 38.8097V43.5716C12.381 44.0975 12.8074 44.524 13.3333 44.524H26.6667C27.1926 44.524 27.619 44.0975 27.619 43.5716V38.8097C27.619 35.7373 25.79 33.0859 23.1648 31.8818ZM17.1429 28.3335C17.1429 26.758 18.4245 25.4764 20 25.4764C21.5755 25.4764 22.8571 26.758 22.8571 28.3335C22.8571 29.909 21.5755 31.1906 20 31.1906C18.4245 31.1906 17.1429 29.909 17.1429 28.3335ZM25.7143 42.6192H14.2857V38.8097C14.2857 35.6587 16.8493 33.0954 20 33.0954C23.1507 33.0954 25.7143 35.6587 25.7143 38.8097V42.6192Z" fill="#F7C948"/>
</svg>
