<svg width="112" height="37" viewBox="0 0 112 37" fill="none" xmlns="http://www.w3.org/2000/svg">
<g clip-path="url(#clip0)">
<path d="M13.7788 0.557129H14.7738C18.228 0.631945 21.6259 2.01604 24.0663 4.46626C23.1652 5.38276 22.2454 6.26184 21.363 7.17834C19.9926 5.94388 18.3406 4.98997 16.5384 4.6533C13.8727 4.09218 11.0004 4.59719 8.76647 6.11221C6.32601 7.70205 4.674 10.3954 4.31732 13.2758C3.92309 16.1188 4.73032 19.1115 6.58883 21.3186C8.37224 23.4695 11.0943 24.8162 13.9102 24.9097C16.5384 25.0593 19.2792 24.2551 21.1941 22.4221C22.6959 21.1315 23.3905 19.1676 23.6158 17.2598C20.4995 17.2598 17.3832 17.2785 14.2669 17.2598V13.4068H27.3891C28.0649 17.5403 27.0887 22.1976 23.9349 25.1529C21.8324 27.2477 18.9226 28.4822 15.9565 28.7253C13.0842 29.0059 10.1181 28.4635 7.56501 27.0794C4.50504 25.4521 2.06458 22.7026 0.863119 19.4669C-0.26325 16.4929 -0.282022 13.1262 0.769255 10.1336C1.72667 7.40279 3.5664 4.98997 5.93178 3.30661C8.20329 1.64196 10.9629 0.725465 13.7788 0.557129Z" fill="#9E9E9E"/>
<path d="M89.0581 1.52686H93.0755V28.2361C91.7426 28.2361 90.391 28.2548 89.0581 28.2174C89.0769 19.333 89.0581 10.43 89.0581 1.52686Z" fill="#9E9E9E"/>
<path d="M36.3254 10.7853C38.8035 10.3177 41.488 10.8414 43.5342 12.319C45.3927 13.6283 46.688 15.6857 47.0823 17.9302C47.5891 20.5301 46.9508 23.3731 45.2613 25.4305C43.4403 27.7311 40.4555 28.9656 37.5457 28.7785C34.8799 28.6289 32.2893 27.3009 30.7124 25.1313C28.929 22.7372 28.4972 19.4453 29.4734 16.6397C30.4496 13.6283 33.2092 11.3277 36.3254 10.7853ZM36.8886 14.3391C35.8749 14.6009 34.9363 15.1807 34.2604 16.0037C32.4395 18.1734 32.5521 21.7084 34.5608 23.7285C35.7059 24.8881 37.433 25.4305 39.0287 25.1126C40.5118 24.8507 41.8071 23.8594 42.5205 22.5501C43.7595 20.3243 43.4028 17.2569 41.5067 15.5174C40.2865 14.3952 38.5031 13.9276 36.8886 14.3391Z" fill="#9E9E9E"/>
<path d="M56.2246 10.7853C59.0593 10.2429 62.1568 11.0285 64.2781 13.0111C67.7323 16.0973 68.1077 21.8768 65.1604 25.4306C63.377 27.675 60.486 28.9095 57.6325 28.7786C54.9105 28.7038 52.226 27.3571 50.6115 25.1313C48.7905 22.6811 48.3963 19.3144 49.4288 16.4526C50.4613 13.5348 53.1646 11.309 56.2246 10.7853ZM56.7878 14.3391C55.774 14.601 54.8354 15.1808 54.1596 15.985C52.3574 18.1173 52.4325 21.5962 54.3661 23.635C55.5112 24.8507 57.2946 25.4493 58.9466 25.1126C60.4109 24.832 61.725 23.8594 62.4384 22.5501C63.6586 20.3057 63.3019 17.2382 61.3871 15.4987C60.1669 14.3765 58.3834 13.9276 56.7878 14.3391Z" fill="#9E9E9E"/>
<path d="M73.1013 11.8701C75.2602 10.5235 78.1324 10.1494 80.4602 11.309C81.1924 11.627 81.7931 12.1694 82.3751 12.7118C82.3938 12.2068 82.3751 11.6831 82.3938 11.1594C83.6516 11.1781 84.9094 11.1594 86.186 11.1781V27.675C86.1672 30.1626 85.5289 32.7999 83.7267 34.6142C81.7556 36.6155 78.7331 37.2327 76.0111 36.8213C73.1013 36.3911 70.567 34.2775 69.4406 31.6028C70.567 31.0604 71.7496 30.6302 72.9136 30.1252C73.5706 31.659 74.9035 32.9682 76.5743 33.2675C78.245 33.5668 80.1787 33.1553 81.2675 31.7712C82.4314 30.3497 82.4314 28.4045 82.3751 26.665C81.5115 27.5067 80.5166 28.2548 79.3151 28.5354C76.7057 29.2648 73.8334 28.3671 71.8247 26.6089C69.7973 24.8507 68.5958 22.1386 68.7085 19.4453C68.7648 16.3965 70.4919 13.46 73.1013 11.8701ZM76.9873 14.2642C75.8421 14.4513 74.7721 15.0872 74.0399 15.9663C72.2753 18.0612 72.2753 21.4092 74.0587 23.4666C75.0724 24.6824 76.7057 25.3557 78.2826 25.1874C79.7656 25.0377 81.1361 24.1025 81.8682 22.812C83.1072 20.6236 82.9007 17.6497 81.2299 15.7419C80.1974 14.5635 78.5454 13.9837 76.9873 14.2642Z" fill="#9E9E9E"/>
<path d="M97.9003 12.824C100.153 10.7292 103.626 10.0184 106.517 11.1219C109.258 12.1507 111.004 14.7505 111.886 17.4252C107.812 19.1085 103.757 20.7732 99.6837 22.4565C100.247 23.5227 101.11 24.4953 102.274 24.8881C103.908 25.4679 105.86 25.2621 107.23 24.1773C107.775 23.7658 108.207 23.2234 108.62 22.6997C109.652 23.3917 110.685 24.0651 111.717 24.7571C110.253 26.9455 107.794 28.4792 105.147 28.7224C102.218 29.0778 99.1018 27.9555 97.2057 25.6736C94.0894 22.0825 94.3898 16.0598 97.9003 12.824ZM99.909 16.2842C99.2707 17.2007 99.0079 18.323 99.0267 19.4265C101.749 18.3043 104.471 17.182 107.193 16.0411C106.742 14.9937 105.654 14.3577 104.546 14.1894C102.762 13.8714 100.904 14.8253 99.909 16.2842Z" fill="#9E9E9E"/>
</g>
<defs>
<clipPath id="clip0">
<rect width="111.886" height="36.3857" fill="white" transform="translate(0 0.551025)"/>
</clipPath>
</defs>
</svg>
