<svg width="50" height="50" viewBox="0 0 50 50" fill="none" xmlns="http://www.w3.org/2000/svg">
<path fill-rule="evenodd" clip-rule="evenodd" d="M4.45988 25C4.68757 25.3935 4.98942 25.8949 5.36336 26.4739C6.32382 27.9611 7.74618 29.9387 9.59278 31.9085C13.324 35.8884 18.5406 39.5833 25 39.5833C31.4594 39.5833 36.676 35.8884 40.4072 31.9085C42.2538 29.9387 43.6762 27.9611 44.6366 26.4739C45.0106 25.8949 45.3124 25.3935 45.5401 25C45.3124 24.6065 45.0106 24.1051 44.6366 23.5261C43.6762 22.0389 42.2538 20.0613 40.4072 18.0915C36.676 14.1116 31.4594 10.4167 25 10.4167C18.5406 10.4167 13.324 14.1116 9.59278 18.0915C7.74618 20.0613 6.32382 22.0389 5.36336 23.5261C4.98942 24.1051 4.68757 24.6065 4.45988 25ZM47.9167 25C49.7801 24.0683 49.7797 24.0676 49.7793 24.0668L49.776 24.0601L49.7688 24.0459L49.7451 23.9996C49.7253 23.961 49.6972 23.9069 49.6609 23.8384C49.5885 23.7015 49.4833 23.5067 49.3459 23.2625C49.0713 22.7743 48.667 22.0865 48.1368 21.2656C47.079 19.6277 45.5066 17.4387 43.447 15.2418C39.3657 10.8884 33.124 6.25 25 6.25C16.876 6.25 10.6343 10.8884 6.55305 15.2418C4.4934 17.4387 2.92097 19.6277 1.8632 21.2656C1.33302 22.0865 0.928733 22.7743 0.654107 23.2625C0.516715 23.5067 0.411542 23.7015 0.33907 23.8384C0.302826 23.9069 0.27474 23.961 0.254871 23.9996L0.231229 24.0459L0.224039 24.0601L0.221604 24.065C0.221222 24.0658 0.219943 24.0683 2.08333 25L0.219943 24.0683C-0.0733145 24.6548 -0.0733145 25.3452 0.219943 25.9317L2.08333 25C0.219943 25.9317 0.219561 25.9309 0.219943 25.9317L0.224039 25.9399L0.231229 25.9541L0.254871 26.0004C0.27474 26.039 0.302826 26.0931 0.33907 26.1616C0.411542 26.2985 0.516715 26.4933 0.654107 26.7375C0.928733 27.2257 1.33302 27.9135 1.8632 28.7344C2.92097 30.3723 4.4934 32.5613 6.55305 34.7582C10.6343 39.1116 16.876 43.75 25 43.75C33.124 43.75 39.3657 39.1116 43.447 34.7582C45.5066 32.5613 47.079 30.3723 48.1368 28.7344C48.667 27.9135 49.0713 27.2257 49.3459 26.7375C49.4833 26.4933 49.5885 26.2985 49.6609 26.1616C49.6972 26.0931 49.7253 26.039 49.7451 26.0004L49.7688 25.9541L49.776 25.9399L49.7784 25.935C49.7788 25.9342 49.7801 25.9317 47.9167 25ZM47.9167 25L49.7801 25.9317C50.0733 25.3452 50.0726 24.6534 49.7793 24.0668L47.9167 25Z" fill="#F7C948"/>
<path fill-rule="evenodd" clip-rule="evenodd" d="M16.6667 25C16.6667 20.3975 20.3976 16.6667 25 16.6667C29.6025 16.6667 33.3334 20.3975 33.3334 25C33.3334 29.6025 29.6025 33.3333 25 33.3333C20.3976 33.3333 16.6667 29.6025 16.6667 25ZM25 20.8333C22.6987 20.8333 20.8334 22.6987 20.8334 25C20.8334 27.3013 22.6987 29.1667 25 29.1667C27.3013 29.1667 29.1667 27.3013 29.1667 25C29.1667 22.6987 27.3013 20.8333 25 20.8333Z" fill="#F7C948"/>
</svg>
