<svg width="51" height="51" viewBox="0 0 51 51" fill="none" xmlns="http://www.w3.org/2000/svg">
<path fill-rule="evenodd" clip-rule="evenodd" d="M0 25.5C0 11.4167 11.4167 0 25.5 0C39.5831 0 51 11.4167 51 25.5C51 39.5831 39.5831 51 25.5 51C11.4167 51 0 39.5831 0 25.5ZM25.5 4.63636C13.9773 4.63636 4.63636 13.9773 4.63636 25.5C4.63636 37.0226 13.9773 46.3636 25.5 46.3636C37.0226 46.3636 46.3636 37.0226 46.3636 25.5C46.3636 13.9773 37.0226 4.63636 25.5 4.63636Z" fill="#F7C948"/>
<path fill-rule="evenodd" clip-rule="evenodd" d="M9 25.5C9 16.3873 16.6112 9 26 9C35.3888 9 43 16.3873 43 25.5C43 34.6127 35.3888 42 26 42C16.6112 42 9 34.6127 9 25.5ZM26 13.7143C19.2937 13.7143 13.8571 18.9909 13.8571 25.5C13.8571 32.0091 19.2937 37.2857 26 37.2857C32.7063 37.2857 38.1429 32.0091 38.1429 25.5C38.1429 18.9909 32.7063 13.7143 26 13.7143Z" fill="#F7C948"/>
<path fill-rule="evenodd" clip-rule="evenodd" d="M19 25.5C19 21.9101 22.1339 19 26 19C29.8661 19 33 21.9101 33 25.5C33 29.0899 29.8661 32 26 32C22.1339 32 19 29.0899 19 25.5ZM26 23.3333C24.7113 23.3333 23.6667 24.3033 23.6667 25.5C23.6667 26.6967 24.7113 27.6667 26 27.6667C27.2887 27.6667 28.3333 26.6967 28.3333 25.5C28.3333 24.3033 27.2887 23.3333 26 23.3333Z" fill="#F7C948"/>
</svg>
