<svg width="112" height="31" viewBox="0 0 112 31" fill="none" xmlns="http://www.w3.org/2000/svg">
<g clip-path="url(#clip0)">
<path d="M105.987 14.7034L111.973 30.5489C110.209 30.297 108.446 29.9814 106.651 29.6972L103.279 20.9419L99.8145 28.9744C98.114 28.6901 96.4438 28.5955 94.7432 28.3747L100.822 14.515L95.3086 0.309448H100.412L103.498 8.24632L106.807 0.309448H111.972L105.987 14.7034ZM91.2789 0.309448H86.6482V27.777C88.1602 27.8717 89.7346 27.9342 91.2789 28.1227V0.309448ZM82.6475 27.4615C78.4272 27.1782 74.2056 26.9273 69.8905 26.8315V0.30957H74.615V22.359C77.3244 22.4216 80.0328 22.6414 82.6475 22.7673V27.4615ZM64.8495 11.0515V15.7759H58.3925V26.5169H53.7316V0.309448H66.9613V5.03384H58.3934V11.0516H64.8505L64.8495 11.0515ZM45.7927 5.03384V26.769C44.2172 26.769 42.6116 26.769 41.0673 26.8315V5.03384H36.1847V0.309448H50.7054V5.03384H45.7927ZM31.0823 16.0269C29.0038 16.0269 26.5463 16.0269 24.7824 16.1227V23.1463C27.5543 22.9568 30.3262 22.737 33.1293 22.6423V27.1782L20.058 28.2185V0.309448H33.1285V5.03384H24.7822V11.3972C26.6097 11.3972 29.4129 11.3025 31.0821 11.3025V16.0279L31.0823 16.0269ZM4.90489 13.3809V29.8866C3.20544 30.0761 1.69242 30.2969 0.0866699 30.5489V0.309448H4.59141L10.7332 17.4775V0.309448H15.4585V28.5955C13.7893 28.8797 12.0879 28.9744 10.2926 29.2255L4.90489 13.3809Z" fill="#9E9E9E"/>
</g>
<defs>
<clipPath id="clip0">
<rect width="111.886" height="30.2987" fill="white" transform="translate(0.0866699 0.279907)"/>
</clipPath>
</defs>
</svg>
