<svg width="113" height="41" viewBox="0 0 113 41" fill="none" xmlns="http://www.w3.org/2000/svg">
<path fill-rule="evenodd" clip-rule="evenodd" d="M14.5054 2.51733C7.22469 11.0676 0.243908 21.6706 0.173908 29.596C0.146645 32.578 1.09864 35.1812 3.38209 37.153C6.66837 39.9928 10.2892 40.9941 13.8923 41C19.1577 41.0074 24.3863 38.8831 28.4802 37.2451C35.3747 34.4879 111.588 1.39145 111.588 1.39145C112.323 1.02303 112.185 0.563987 111.265 0.793143C110.894 0.885984 28.2952 23.2703 28.2952 23.2703C26.7307 23.7128 25.114 23.9442 23.4881 23.9585C17.1403 23.9961 11.4917 20.4725 11.5374 13.0475C11.5551 10.1421 12.4444 6.63845 14.5054 2.51733Z" fill="#9E9E9E"/>
</svg>
