<svg width="50" height="50" viewBox="0 0 50 50" fill="none" xmlns="http://www.w3.org/2000/svg">
<path fill-rule="evenodd" clip-rule="evenodd" d="M8.33329 10.4165L8.33329 10.4166L8.33329 10.4168C8.33329 10.4186 8.33326 10.4275 8.33966 10.4485C8.34673 10.4717 8.36418 10.5176 8.40637 10.5863C8.49479 10.7303 8.67512 10.9469 9.01296 11.2132C9.70083 11.7553 10.8253 12.3346 12.4005 12.8596C15.5292 13.9025 19.9839 14.5833 25 14.5833C30.016 14.5833 34.4707 13.9025 37.5994 12.8596C39.1746 12.3346 40.2991 11.7553 40.987 11.2132C41.3248 10.9469 41.5051 10.7303 41.5936 10.5863C41.6357 10.5176 41.6532 10.4717 41.6603 10.4485C41.6667 10.4275 41.6666 10.4186 41.6666 10.4168V10.4166C41.6666 10.4151 41.6668 10.4064 41.6603 10.3848C41.6532 10.3616 41.6357 10.3157 41.5936 10.247C41.5051 10.103 41.3248 9.88638 40.987 9.62014C40.2991 9.07803 39.1746 8.49873 37.5994 7.97365C34.4707 6.93077 30.016 6.24998 25 6.24998C19.9839 6.24998 15.5292 6.93077 12.4005 7.97365C10.8253 8.49873 9.70083 9.07803 9.01296 9.62014C8.67512 9.88638 8.49479 10.103 8.40637 10.247C8.36418 10.3157 8.34673 10.3616 8.33966 10.3848C8.33326 10.4058 8.33329 10.4147 8.33329 10.4165ZM11.0829 4.02081C14.7404 2.80164 19.6607 2.08331 25 2.08331C30.3392 2.08331 35.2595 2.80164 38.917 4.02081C40.7349 4.62676 42.3563 5.39421 43.566 6.34759C44.7523 7.28246 45.8333 8.64176 45.8333 10.4166C45.8333 12.1915 44.7523 13.5508 43.566 14.4857C42.3563 15.4391 40.7349 16.2065 38.917 16.8125C35.2595 18.0317 30.3392 18.75 25 18.75C19.6607 18.75 14.7404 18.0317 11.0829 16.8125C9.26504 16.2065 7.64363 15.4391 6.4339 14.4857C5.24765 13.5508 4.16663 12.1915 4.16663 10.4166C4.16663 8.64176 5.24765 7.28246 6.4339 6.34759C7.64363 5.39421 9.26504 4.62676 11.0829 4.02081Z" fill="#F7C948"/>
<path fill-rule="evenodd" clip-rule="evenodd" d="M6.24996 22.9167C7.40055 22.9167 8.33329 23.8494 8.33329 25C8.33329 25.004 8.33346 25.0147 8.34038 25.0376C8.34777 25.062 8.36547 25.1085 8.40741 25.1774C8.49521 25.3214 8.67388 25.5374 9.00868 25.8027C9.69077 26.3432 10.808 26.9215 12.3784 27.4458C15.4977 28.4871 19.9516 29.1667 25 29.1667C30.0484 29.1667 34.5022 28.4871 37.6215 27.4458C39.1919 26.9215 40.3092 26.3432 40.9912 25.8027C41.326 25.5374 41.5047 25.3214 41.5925 25.1774C41.6345 25.1085 41.6521 25.062 41.6595 25.0376C41.6665 25.0147 41.6666 25.004 41.6666 25C41.6666 23.8494 42.5994 22.9167 43.75 22.9167C44.9006 22.9167 45.8333 23.8494 45.8333 25C45.8333 26.7696 44.7641 28.1293 43.579 29.0684C42.3731 30.024 40.756 30.7921 38.9409 31.398C35.2894 32.6171 30.3682 33.3334 25 33.3334C19.6317 33.3334 14.7106 32.6171 11.059 31.398C9.24397 30.7921 7.62686 30.024 6.42092 29.0684C5.23578 28.1293 4.16663 26.7696 4.16663 25C4.16663 23.8494 5.09937 22.9167 6.24996 22.9167Z" fill="#F7C948"/>
<path fill-rule="evenodd" clip-rule="evenodd" d="M6.24996 8.33331C7.40055 8.33331 8.33329 9.26605 8.33329 10.4166V39.5833C8.33329 39.5872 8.33346 39.598 8.34038 39.6208C8.34777 39.6453 8.36547 39.6918 8.40741 39.7607C8.49521 39.9047 8.67388 40.1207 9.00868 40.386C9.69077 40.9265 10.808 41.5048 12.3784 42.0291C15.4977 43.0704 19.9516 43.75 25 43.75C30.0484 43.75 34.5022 43.0704 37.6215 42.0291C39.1919 41.5048 40.3092 40.9265 40.9912 40.386C41.326 40.1207 41.5047 39.9047 41.5925 39.7607C41.6345 39.6918 41.6521 39.6453 41.6595 39.6208C41.6665 39.598 41.6666 39.5872 41.6666 39.5833V10.4166C41.6666 9.26605 42.5994 8.33331 43.75 8.33331C44.9006 8.33331 45.8333 9.26605 45.8333 10.4166V39.5833C45.8333 41.3529 44.7641 42.7126 43.579 43.6517C42.3731 44.6073 40.756 45.3754 38.9409 45.9813C35.2894 47.2004 30.3682 47.9166 25 47.9166C19.6317 47.9166 14.7106 47.2004 11.059 45.9813C9.24397 45.3754 7.62686 44.6073 6.42092 43.6517C5.23578 42.7126 4.16663 41.3529 4.16663 39.5833V10.4166C4.16663 9.26605 5.09937 8.33331 6.24996 8.33331Z" fill="#F7C948"/>
</svg>
