<svg width="113" height="29" viewBox="0 0 113 29" fill="none" xmlns="http://www.w3.org/2000/svg">
<g clip-path="url(#clip0)">
<path fill-rule="evenodd" clip-rule="evenodd" d="M35.9246 22.3913L37.3209 19.1466C38.8291 20.2744 40.8386 20.8607 42.8212 20.8607C44.2847 20.8607 45.2111 20.2968 45.2111 19.442C45.1887 17.0521 36.4437 18.9229 36.3766 12.9302C36.3542 9.88695 39.0574 7.54182 42.8884 7.54182C45.1664 7.54182 47.4399 8.10573 49.0645 9.39018L47.7576 12.702C46.2718 11.7532 44.4234 11.0774 42.6646 11.0774C41.4696 11.0774 40.682 11.6413 40.682 12.3619C40.7043 14.707 49.5165 13.4225 49.606 19.1466C49.606 22.2571 46.97 24.4456 43.1837 24.4456C40.409 24.4411 37.8624 23.7877 35.9246 22.3913ZM89.5448 17.9741C88.8467 19.1914 87.5398 20.0238 86.0271 20.0238C83.7939 20.0238 81.9948 18.2202 81.9948 15.9914C81.9948 13.7627 83.7984 11.9591 86.0271 11.9591C87.5354 11.9591 88.8467 12.7915 89.5448 14.0088L93.3982 11.8696C91.9571 9.30067 89.1823 7.54182 86.0271 7.54182C81.3592 7.54182 77.573 11.328 77.573 15.9959C77.573 20.6638 81.3592 24.45 86.0271 24.45C89.2047 24.45 91.9571 22.7136 93.3982 20.1223L89.5448 17.9741ZM51.5439 0.528809H56.3684V24.1278H51.5439V0.528809ZM95.2913 0.528809V24.1278H100.116V17.0477L105.84 24.1278H112.016L104.734 15.7184L111.474 7.873H105.567L100.111 14.3848V0.528809H95.2913Z" fill="#9E9E9E"/>
<path d="M70.7034 18.0188C70.0053 19.169 68.5642 20.0238 66.9396 20.0238C64.7064 20.0238 62.9072 18.2202 62.9072 15.9915C62.9072 13.7627 64.7108 11.9591 66.9396 11.9591C68.5642 11.9591 70.0053 12.8586 70.7034 14.0312V18.0188ZM70.7034 7.87749V9.79297C69.9158 8.46377 67.9555 7.53735 65.9013 7.53735C61.6631 7.53735 58.3289 11.2788 58.3289 15.9691C58.3289 20.6593 61.6631 24.4456 65.9013 24.4456C67.9511 24.4456 69.9113 23.5236 70.7034 22.1899V24.1054H75.528V7.87749H70.7034Z" fill="#9E9E9E"/>
<path fill-rule="evenodd" clip-rule="evenodd" d="M6.10492 17.9964C6.10492 19.6434 4.77572 20.9726 3.12875 20.9726C1.48179 20.9726 0.152588 19.6389 0.152588 17.9964C0.152588 16.3539 1.48179 15.0203 3.12875 15.0203H6.10492V17.9964ZM7.59077 17.9964C7.59077 16.3495 8.91997 15.0203 10.5669 15.0203C12.2139 15.0203 13.5431 16.3495 13.5431 17.9964V25.4346C13.5431 27.0816 12.2139 28.4108 10.5669 28.4108C8.91997 28.4108 7.59077 27.0816 7.59077 25.4346V17.9964Z" fill="#9E9E9E"/>
<path fill-rule="evenodd" clip-rule="evenodd" d="M10.5669 6.05145C8.91989 6.05145 7.59068 4.72225 7.59068 3.07529C7.59068 1.42833 8.91989 0.0991211 10.5669 0.0991211C12.2138 0.0991211 13.543 1.42833 13.543 3.07529V6.05145H10.5669ZM10.5669 7.55968C12.2138 7.55968 13.543 8.88888 13.543 10.5358C13.543 12.1828 12.2138 13.512 10.5669 13.512H3.10629C1.45933 13.512 0.130127 12.1783 0.130127 10.5358C0.130127 8.89336 1.45933 7.55968 3.10629 7.55968H10.5669Z" fill="#9E9E9E"/>
<path fill-rule="evenodd" clip-rule="evenodd" d="M22.4894 10.5358C22.4894 8.88888 23.8186 7.55968 25.4656 7.55968C27.1125 7.55968 28.4417 8.88888 28.4417 10.5358C28.4417 12.1828 27.1125 13.512 25.4656 13.512H22.4894V10.5358ZM21.0036 10.5358C21.0036 12.1828 19.6744 13.512 18.0274 13.512C16.3805 13.512 15.0513 12.1828 15.0513 10.5358V3.07529C15.0513 1.42833 16.3805 0.0991211 18.0274 0.0991211C19.6744 0.0991211 21.0036 1.42833 21.0036 3.07529V10.5358Z" fill="#9E9E9E"/>
<path fill-rule="evenodd" clip-rule="evenodd" d="M18.0274 22.4585C19.6744 22.4585 21.0036 23.7877 21.0036 25.4346C21.0036 27.0816 19.6744 28.4108 18.0274 28.4108C16.3805 28.4108 15.0513 27.0816 15.0513 25.4346V22.4585H18.0274ZM18.0274 20.9726C16.3805 20.9726 15.0513 19.6434 15.0513 17.9964C15.0513 16.3495 16.3805 15.0203 18.0274 15.0203H25.4879C27.1349 15.0203 28.4641 16.3495 28.4641 17.9964C28.4641 19.6434 27.1349 20.9726 25.4879 20.9726H18.0274Z" fill="#9E9E9E"/>
</g>
<defs>
<clipPath id="clip0">
<rect width="111.886" height="28.3116" fill="white" transform="translate(0.130127 0.0991211)"/>
</clipPath>
</defs>
</svg>
