<svg width="50" height="50" viewBox="0 0 50 50" fill="none" xmlns="http://www.w3.org/2000/svg">
<path fill-rule="evenodd" clip-rule="evenodd" d="M3.05097 32.2177C5.00447 30.2642 7.65399 29.1667 10.4167 29.1667H27.0833C29.846 29.1667 32.4955 30.2642 34.449 32.2177C36.4025 34.1712 37.5 36.8207 37.5 39.5834V43.75C37.5 44.9006 36.5673 45.8334 35.4167 45.8334C34.2661 45.8334 33.3333 44.9006 33.3333 43.75V39.5834C33.3333 37.9258 32.6749 36.336 31.5028 35.1639C30.3306 33.9918 28.7409 33.3334 27.0833 33.3334H10.4167C8.75906 33.3334 7.16935 33.9918 5.99725 35.1639C4.82515 36.336 4.16667 37.9258 4.16667 39.5834V43.75C4.16667 44.9006 3.23393 45.8334 2.08333 45.8334C0.93274 45.8334 0 44.9006 0 43.75V39.5834C0 36.8207 1.09747 34.1712 3.05097 32.2177Z" fill="#F7C948"/>
<path fill-rule="evenodd" clip-rule="evenodd" d="M18.75 8.33335C15.2982 8.33335 12.5 11.1316 12.5 14.5834C12.5 18.0351 15.2982 20.8334 18.75 20.8334C22.2018 20.8334 25 18.0351 25 14.5834C25 11.1316 22.2018 8.33335 18.75 8.33335ZM8.33331 14.5834C8.33331 8.83039 12.997 4.16669 18.75 4.16669C24.5029 4.16669 29.1666 8.83039 29.1666 14.5834C29.1666 20.3363 24.5029 25 18.75 25C12.997 25 8.33331 20.3363 8.33331 14.5834Z" fill="#F7C948"/>
<path fill-rule="evenodd" clip-rule="evenodd" d="M39.6495 31C39.9371 29.886 41.0734 29.216 42.1875 29.5037C44.4222 30.0807 46.402 31.3835 47.8161 33.2076C49.2301 35.0317 49.9983 37.2738 50 39.5818L50 43.75C50 44.9006 49.0673 45.8333 47.9167 45.8333C46.7661 45.8333 45.8333 44.9006 45.8333 43.75L45.8333 39.5849C45.8333 39.5847 45.8333 39.5851 45.8333 39.5849C45.8322 38.2003 45.3713 36.8547 44.523 35.7604C43.6745 34.6659 42.4867 33.8842 41.1458 33.538C40.0318 33.2504 39.3618 32.1141 39.6495 31Z" fill="#F7C948"/>
<path fill-rule="evenodd" clip-rule="evenodd" d="M31.3151 6.0041C31.6005 4.88946 32.7355 4.21723 33.8501 4.50262C36.0908 5.07632 38.0768 6.37944 39.495 8.20655C40.9132 10.0337 41.683 12.2808 41.683 14.5938C41.683 16.9067 40.9132 19.1539 39.495 20.981C38.0768 22.8081 36.0908 24.1112 33.8501 24.6849C32.7355 24.9703 31.6005 24.2981 31.3151 23.1834C31.0297 22.0688 31.702 20.9338 32.8166 20.6485C34.161 20.3042 35.3526 19.5224 36.2035 18.4261C37.0545 17.3298 37.5164 15.9815 37.5164 14.5938C37.5164 13.206 37.0545 11.8577 36.2035 10.7614C35.3526 9.66517 34.161 8.8833 32.8166 8.53908C31.702 8.25368 31.0297 7.11874 31.3151 6.0041Z" fill="#F7C948"/>
</svg>
