<svg width="664" height="498" viewBox="0 0 664 498" fill="none" xmlns="http://www.w3.org/2000/svg">
<path d="M325.999 250.468C325.825 250.466 325.654 250.418 325.505 250.33C325.355 250.242 325.23 250.117 325.143 249.966C325.013 249.738 324.977 249.469 325.043 249.215C325.109 248.962 325.272 248.744 325.496 248.608L525.559 132.674C525.671 132.607 525.796 132.563 525.925 132.545C526.054 132.526 526.186 132.534 526.312 132.567C526.438 132.6 526.557 132.657 526.661 132.736C526.765 132.815 526.852 132.914 526.917 133.027C526.987 133.139 527.033 133.263 527.052 133.393C527.072 133.523 527.065 133.655 527.032 133.782C526.999 133.909 526.94 134.028 526.86 134.132C526.779 134.235 526.679 134.321 526.564 134.385L326.501 250.32C326.35 250.414 326.176 250.465 325.999 250.468Z" fill="#FCE588"/>
<path d="M324.623 498C320.966 498.003 317.373 497.041 314.207 495.21L178.984 417.09C178.363 416.726 177.848 416.205 177.49 415.58C177.132 414.956 176.943 414.248 176.943 413.528C176.943 412.808 177.132 412.1 177.49 411.476C177.848 410.851 178.363 410.33 178.984 409.966L423.055 269.145L423.52 269.424L568.601 353.217C569.226 353.578 569.746 354.097 570.108 354.722C570.469 355.347 570.659 356.057 570.659 356.779C570.659 357.501 570.469 358.211 570.108 358.836C569.746 359.461 569.226 359.98 568.601 360.341L335.02 495.21C331.86 497.039 328.274 498.001 324.623 498ZM423.055 271.321L179.932 411.659C179.597 411.856 179.318 412.137 179.125 412.475C178.932 412.812 178.83 413.195 178.83 413.584C178.83 413.973 178.932 414.355 179.125 414.693C179.318 415.031 179.597 415.312 179.932 415.509L315.155 493.629C318.033 495.284 321.294 496.155 324.613 496.155C327.933 496.155 331.194 495.284 334.072 493.629L567.671 358.76C568.003 358.575 568.281 358.305 568.477 357.979C568.673 357.652 568.779 357.28 568.787 356.9C568.776 356.52 568.667 356.15 568.472 355.824C568.277 355.498 568.001 355.228 567.671 355.04L423.055 271.321Z" fill="url(#paint0_linear)"/>
<path d="M423.296 211.874L390.746 18.8047L393.369 17.6887L389.444 15.4381C388.969 15.1849 388.432 15.0714 387.896 15.111C387.359 15.1505 386.845 15.3413 386.412 15.6613L126.308 165.839C125.219 166.549 124.335 167.533 123.744 168.691C123.153 169.85 122.877 171.143 122.941 172.442L155.733 367.073C155.778 367.491 155.927 367.891 156.168 368.236C156.409 368.581 156.733 368.859 157.11 369.045L160.96 371.277L161.611 367.687H161.388L419.93 218.44C421.013 217.733 421.894 216.755 422.484 215.604C423.075 214.452 423.354 213.167 423.296 211.874Z" fill="#FFFAEB"/>
<path d="M127.759 171.121L123.48 169.261C123.006 170.263 122.82 171.377 122.941 172.479L155.733 367.073C155.778 367.491 155.927 367.891 156.168 368.236C156.408 368.581 156.732 368.859 157.11 369.045L160.96 371.277L161.611 367.687H161.388L174.408 360.135L127.759 171.121Z" fill="#FFF3C4"/>
<path d="M424.003 220.821L163.899 370.998C161.891 372.151 160.179 371.482 159.826 369.417L127.015 174.841C126.941 173.539 127.215 172.24 127.811 171.08C128.406 169.919 129.3 168.938 130.401 168.238L390.486 18.0237C392.495 16.8519 394.206 17.5215 394.578 19.6047L427.37 214.218C427.452 215.519 427.183 216.819 426.591 217.98C425.999 219.142 425.105 220.123 424.003 220.821Z" fill="#8D2B0B"/>
<g opacity="0.51">
<path opacity="0.51" d="M387.1 30.4304L136.37 175.195L167.47 358.481L418.013 213.828L387.1 30.4304Z" fill="#FFF3C4"/>
</g>
<path d="M587.498 312.965L573.307 320.405L430.978 238.229C429.507 237.562 427.899 237.248 426.284 237.312C424.669 237.377 423.092 237.818 421.678 238.601L176.157 380.334C173.813 379.032 163.137 373.88 163.137 373.88L168.326 387.421C168.597 388.114 169.113 388.684 169.777 389.021L319.675 475.567C321.146 476.237 322.754 476.553 324.37 476.489C325.985 476.424 327.563 475.981 328.975 475.195L580.189 330.114C581.134 329.645 581.879 328.854 582.29 327.882L587.498 312.965Z" fill="#F7C948"/>
<path d="M585.303 315.31L327.859 463.943C326.413 464.752 324.798 465.208 323.144 465.276C321.489 465.344 319.842 465.021 318.335 464.334L164.698 375.723C162.262 374.31 162.559 371.836 165.387 370.143L422.831 221.51C424.276 220.703 425.89 220.245 427.544 220.174C429.198 220.103 430.845 220.42 432.354 221.1L585.991 309.804C588.428 311.218 588.13 313.673 585.303 315.31Z" fill="url(#paint1_linear)"/>
<path d="M250.203 431.783V428.974C250.203 428.695 250.352 428.584 250.557 428.695L260.508 434.443C260.62 434.52 260.712 434.622 260.777 434.742C260.842 434.862 260.877 434.995 260.88 435.131V437.958C260.88 438.237 260.712 438.349 260.508 438.237L250.557 432.49C250.445 432.409 250.355 432.303 250.293 432.18C250.232 432.057 250.201 431.921 250.203 431.783Z" fill="#B44D12"/>
<path d="M265.083 440.395V437.568C265.083 437.289 265.251 437.177 265.455 437.289L275.407 443.036C275.52 443.116 275.613 443.222 275.678 443.345C275.743 443.468 275.777 443.604 275.779 443.743V446.552C275.779 446.831 275.611 446.942 275.407 446.831L265.455 441.083C265.343 441.007 265.251 440.904 265.186 440.784C265.122 440.665 265.086 440.531 265.083 440.395Z" fill="#B44D12"/>
<path d="M204.746 367.335L418.647 243.811C419.346 243.41 420.138 243.198 420.944 243.198C421.75 243.198 422.542 243.41 423.241 243.811L499.502 287.893C499.753 288.036 499.962 288.243 500.108 288.493C500.253 288.743 500.33 289.027 500.33 289.316C500.33 289.605 500.253 289.889 500.108 290.139C499.962 290.389 499.753 290.596 499.502 290.739L285.601 414.207C284.901 414.608 284.109 414.819 283.303 414.819C282.497 414.819 281.705 414.608 281.006 414.207L204.746 370.18C204.494 370.037 204.285 369.83 204.14 369.581C203.995 369.331 203.918 369.047 203.918 368.757C203.918 368.468 203.995 368.184 204.14 367.934C204.285 367.684 204.494 367.477 204.746 367.335Z" fill="#FFF3C4"/>
<path d="M204.745 370.143L205.508 370.589L418.703 247.512C419.398 247.101 420.192 246.885 421 246.885C421.808 246.885 422.601 247.101 423.297 247.512L498.72 291.148L499.483 290.701C499.734 290.558 499.943 290.352 500.089 290.102C500.234 289.852 500.311 289.568 500.311 289.278C500.311 288.989 500.234 288.705 500.089 288.455C499.943 288.205 499.734 287.998 499.483 287.856L423.222 243.773C422.523 243.372 421.731 243.161 420.925 243.161C420.119 243.161 419.327 243.372 418.628 243.773L204.727 367.297C204.476 367.441 204.269 367.65 204.125 367.9C203.981 368.151 203.906 368.436 203.908 368.725C203.91 369.014 203.989 369.298 204.136 369.547C204.283 369.796 204.493 370.001 204.745 370.143Z" fill="#FFFAEB"/>
<path d="M429.043 254.969L243.209 362.273L234.95 357.493L420.784 250.208L429.043 254.969Z" fill="#8D2B0B"/>
<path d="M449.319 266.669L274.999 367.314L266.74 362.534L441.042 261.907L449.319 266.669Z" fill="#8D2B0B"/>
<path d="M462.506 274.297L257.272 392.779L249.013 388.018L454.247 269.516L462.506 274.297Z" fill="#8D2B0B"/>
<path d="M475.693 281.904L270.459 400.405L262.201 395.625L467.434 277.142L475.693 281.904Z" fill="#8D2B0B"/>
<path d="M488.898 289.53L283.664 408.013L275.406 403.251L480.621 284.75L488.898 289.53Z" fill="#8D2B0B"/>
<path d="M231.976 368.748L223.717 373.529L215.459 368.748L223.717 363.987L231.976 368.748Z" fill="#8D2B0B"/>
<path d="M261.122 375.313L243.972 385.227L235.714 380.447L252.863 370.552L261.122 375.313Z" fill="#8D2B0B"/>
<path d="M426.924 397.224L484.584 363.911C485.072 363.741 485.495 363.422 485.795 363.001C486.094 362.579 486.255 362.075 486.255 361.558C486.255 361.041 486.094 360.537 485.795 360.115C485.495 359.694 485.072 359.376 484.584 359.205L445.134 336.42C443.868 335.778 442.47 335.443 441.051 335.443C439.632 335.443 438.233 335.778 436.968 336.42L379.308 369.733C378.813 369.899 378.383 370.217 378.079 370.641C377.774 371.065 377.61 371.573 377.61 372.095C377.61 372.617 377.774 373.126 378.079 373.55C378.383 373.973 378.813 374.291 379.308 374.457L418.759 397.224C420.023 397.869 421.422 398.205 422.841 398.205C424.261 398.205 425.66 397.869 426.924 397.224Z" fill="url(#paint2_linear)"/>
<path d="M379.326 371.667L436.986 338.355C438.251 337.712 439.65 337.378 441.069 337.378C442.487 337.378 443.886 337.712 445.151 338.355L484.602 361.14C485.196 361.452 485.687 361.93 486.016 362.516C486.611 361.381 486.165 360.098 484.602 359.205L445.151 336.42C443.886 335.778 442.487 335.443 441.069 335.443C439.65 335.443 438.251 335.778 436.986 336.42L379.326 369.733C377.763 370.626 377.298 371.909 377.893 373.062C378.223 372.467 378.721 371.981 379.326 371.667Z" fill="#FFFAEB"/>
<g opacity="0.11">
<g opacity="0.11">
<path opacity="0.11" d="M423.055 221.193L165.629 369.845C164.182 370.649 162.568 371.103 160.914 371.171C159.26 371.239 157.614 370.918 156.106 370.236L2.48747 281.532C0.032254 280.118 0.348456 277.663 3.15707 275.951L260.62 127.392C262.067 126.588 263.682 126.134 265.335 126.067C266.989 125.999 268.635 126.319 270.143 127.002L423.78 215.761C426.217 217.101 425.901 219.575 423.055 221.193Z" fill="#FFFAEB"/>
<path opacity="0.11" d="M164.868 247.847L222.528 214.534C223.025 214.373 223.458 214.058 223.765 213.635C224.072 213.213 224.238 212.704 224.238 212.181C224.238 211.659 224.072 211.149 223.765 210.727C223.458 210.304 223.025 209.99 222.528 209.828L183.114 187.043C181.849 186.401 180.45 186.066 179.032 186.066C177.613 186.066 176.214 186.401 174.949 187.043L117.288 220.356C116.8 220.526 116.377 220.844 116.078 221.266C115.779 221.688 115.618 222.192 115.618 222.709C115.618 223.226 115.779 223.73 116.078 224.152C116.377 224.573 116.8 224.891 117.288 225.062L156.702 247.847C157.967 248.489 159.366 248.824 160.785 248.824C162.204 248.824 163.602 248.489 164.868 247.847Z" fill="#FFFAEB"/>
<path opacity="0.11" d="M117.25 222.29L174.911 188.977C176.176 188.335 177.574 188.001 178.993 188.001C180.412 188.001 181.811 188.335 183.076 188.977L222.527 211.763C223.117 212.08 223.607 212.557 223.94 213.139C224.536 212.004 224.071 210.721 222.527 209.828L183.113 187.043C181.848 186.401 180.449 186.066 179.03 186.066C177.612 186.066 176.213 186.401 174.948 187.043L117.287 220.356C115.725 221.249 115.279 222.532 115.874 223.685C116.186 223.095 116.665 222.61 117.25 222.29Z" fill="#FFFAEB"/>
<path opacity="0.11" d="M91.9738 299.89L305.875 176.366C306.577 175.963 307.372 175.751 308.182 175.751C308.991 175.751 309.786 175.963 310.488 176.366L386.749 220.449C387 220.592 387.209 220.799 387.354 221.048C387.5 221.298 387.576 221.582 387.576 221.872C387.576 222.161 387.5 222.445 387.354 222.695C387.209 222.945 387 223.152 386.749 223.294L172.847 346.762C172.145 347.165 171.35 347.377 170.541 347.377C169.731 347.377 168.936 347.165 168.234 346.762L91.9738 302.736C91.7224 302.593 91.5134 302.386 91.368 302.136C91.2226 301.886 91.146 301.602 91.146 301.313C91.146 301.024 91.2226 300.74 91.368 300.49C91.5134 300.24 91.7224 300.033 91.9738 299.89Z" fill="#FFF3C4"/>
<path opacity="0.11" d="M91.9738 302.736L92.7364 303.182L305.875 180.105C306.577 179.702 307.372 179.49 308.182 179.49C308.991 179.49 309.786 179.702 310.488 180.105L385.856 223.741L386.618 223.294C386.87 223.152 387.079 222.945 387.224 222.695C387.37 222.445 387.446 222.161 387.446 221.872C387.446 221.582 387.37 221.298 387.224 221.048C387.079 220.799 386.87 220.592 386.618 220.449L310.358 176.366C309.656 175.963 308.861 175.751 308.051 175.751C307.242 175.751 306.447 175.963 305.745 176.366L91.9738 299.89C91.7224 300.033 91.5134 300.24 91.368 300.49C91.2226 300.74 91.146 301.024 91.146 301.313C91.146 301.602 91.2226 301.886 91.368 302.136C91.5134 302.386 91.7224 302.593 91.9738 302.736Z" fill="#FFFAEB"/>
<path opacity="0.11" d="M366.697 217.455L180.324 325.056L187.69 329.316L374.082 221.714L366.697 217.455Z" fill="#8D2B0B"/>
<path opacity="0.11" d="M347.055 206.107L169.907 308.389L177.292 312.648L354.439 210.366L347.055 206.107Z" fill="#8D2B0B"/>
<path opacity="0.11" d="M156.683 316.035L140.129 325.577L147.513 329.836L164.068 320.295L156.683 316.035Z" fill="#8D2B0B"/>
<path opacity="0.11" d="M171.283 330.263L159.77 336.921L167.154 341.181L178.668 334.522L171.283 330.263Z" fill="#8D2B0B"/>
<path opacity="0.11" d="M334.759 199.004L127.833 318.472L135.217 322.732L342.144 203.263L334.759 199.004Z" fill="#8D2B0B"/>
<path opacity="0.11" d="M322.446 191.897L115.52 311.366L122.904 315.625L329.83 196.156L322.446 191.897Z" fill="#8D2B0B"/>
<path opacity="0.11" d="M310.135 184.791L103.208 304.26L110.593 308.519L317.519 189.051L310.135 184.791Z" fill="#8D2B0B"/>
</g>
</g>
<path d="M136.966 473.597C136.036 473.593 135.121 473.356 134.306 472.909C133.428 472.429 132.696 471.721 132.185 470.86C131.675 470 131.405 469.018 131.404 468.017V334.096C131.407 331.738 132.031 329.422 133.213 327.381C134.395 325.341 136.093 323.647 138.138 322.471L232.068 268.624C232.176 268.55 232.298 268.499 232.426 268.475C232.554 268.45 232.686 268.452 232.814 268.481C232.941 268.51 233.061 268.565 233.166 268.642C233.271 268.719 233.36 268.818 233.425 268.931C233.49 269.044 233.532 269.169 233.547 269.299C233.562 269.429 233.549 269.56 233.511 269.685C233.473 269.81 233.409 269.925 233.324 270.024C233.239 270.123 233.134 270.204 233.017 270.261L139.086 324.108C137.328 325.116 135.867 326.571 134.852 328.325C133.836 330.079 133.301 332.07 133.302 334.096V468.017C133.324 468.659 133.513 469.283 133.849 469.831C134.185 470.378 134.656 470.829 135.218 471.139C135.78 471.45 136.412 471.61 137.054 471.604C137.696 471.598 138.326 471.426 138.882 471.105L203.424 429.664C203.636 429.532 203.892 429.489 204.136 429.544C204.38 429.6 204.592 429.75 204.726 429.961C204.86 430.171 204.906 430.426 204.853 430.669C204.801 430.913 204.655 431.126 204.447 431.263L139.979 472.704C139.081 473.284 138.035 473.594 136.966 473.597Z" fill="url(#paint3_linear)"/>
<path d="M247.34 278.183C246.171 278.196 245.018 277.907 243.992 277.346L220.128 263.564C219.642 263.332 219.226 262.976 218.922 262.532C218.619 262.088 218.438 261.571 218.398 261.034C218.415 260.584 218.551 260.148 218.793 259.768C219.035 259.389 219.374 259.081 219.775 258.876L334.593 192.586C335.54 192.133 336.582 191.915 337.631 191.95C338.68 191.986 339.706 192.274 340.62 192.79L364.484 206.573C364.974 206.8 365.395 207.155 365.702 207.6C366.01 208.044 366.193 208.563 366.232 209.102C366.215 209.554 366.077 209.993 365.831 210.373C365.586 210.753 365.242 211.059 364.837 211.26L250.074 277.551C249.235 278 248.291 278.218 247.34 278.183ZM337.272 194.055C336.711 194.034 336.154 194.155 335.653 194.408L220.835 260.699C220.593 260.829 220.5 260.96 220.5 261.034C220.5 261.108 220.63 261.425 221.188 261.741L245.052 275.523C245.649 275.851 246.312 276.039 246.991 276.075C247.671 276.11 248.349 275.992 248.977 275.728L363.795 209.437C364.019 209.307 364.13 209.177 364.13 209.102C364.13 209.028 364 208.712 363.442 208.396L339.578 194.613C338.868 194.237 338.075 194.045 337.272 194.055Z" fill="#FFFAEB"/>
<path d="M318.206 154.381C315.031 156.269 312.185 158.663 309.78 161.467C306.265 150.14 295.514 146.587 282.773 154.027C272.245 160.11 263.075 172.069 258.221 184.736C256.343 184.85 254.522 185.425 252.92 186.41C249.296 188.771 246.28 191.954 244.118 195.7C241.956 199.446 240.708 203.649 240.476 207.968C240.476 208.135 240.476 208.284 240.476 208.451C238.208 208.68 236.021 209.418 234.078 210.609C225.28 215.668 218.156 228.019 218.156 238.156C218.156 248.293 225.28 252.422 234.078 247.344L318.187 198.779C328.808 192.604 337.494 177.705 337.494 165.541C337.494 153.376 328.808 148.243 318.206 154.381Z" fill="#FCE588"/>
<path d="M318.206 154.382C316.394 155.441 314.699 156.688 313.147 158.102L303.847 152.67C298.676 148.95 291.199 149.192 282.866 153.991C272.338 160.073 263.168 172.033 258.314 184.7C256.436 184.813 254.615 185.388 253.013 186.374C249.389 188.735 246.373 191.918 244.211 195.664C242.049 199.409 240.801 203.612 240.569 207.931C240.569 208.099 240.569 208.247 240.569 208.415C238.301 208.644 236.114 209.381 234.171 210.572C225.373 215.632 218.249 227.982 218.249 238.119C218.249 243.16 220.109 246.694 222.843 248.368L245.889 261.741L250.911 237.561L318.206 198.706C328.808 192.605 337.494 177.706 337.494 165.542C337.494 153.377 328.808 148.243 318.206 154.382Z" fill="url(#paint4_radial)"/>
<path d="M355.239 166.658L331.914 153.098C328.417 151.015 323.581 151.238 318.224 154.382C316.413 155.441 314.717 156.688 313.165 158.102L303.865 152.67C298.694 148.95 291.217 149.192 282.884 153.991C272.356 160.073 263.187 172.033 258.332 184.7C256.454 184.813 254.633 185.388 253.031 186.374C249.407 188.735 246.392 191.918 244.23 195.664C242.067 199.409 240.82 203.612 240.587 207.931C240.587 208.099 240.587 208.247 240.587 208.415C238.32 208.644 236.133 209.381 234.189 210.572C225.391 215.632 218.267 227.982 218.267 238.119C218.267 243.16 220.127 246.694 222.862 248.368L245.907 261.741L250.929 237.561L318.224 198.706C326.818 193.758 334.09 183.026 336.546 172.665L355.239 166.658Z" fill="#FFF3C4"/>
<path d="M341.307 167.791C338.149 169.681 335.311 172.06 332.9 174.841C329.366 163.513 318.615 159.96 305.892 167.4C295.365 173.464 286.176 185.424 281.321 198.091C279.446 198.215 277.628 198.79 276.02 199.765C272.4 202.132 269.388 205.319 267.229 209.068C265.071 212.816 263.826 217.021 263.596 221.341C263.586 221.508 263.586 221.676 263.596 221.843C261.321 222.054 259.125 222.786 257.179 223.982C248.399 229.06 241.275 241.392 241.275 251.547C241.275 261.703 248.399 265.795 257.179 260.717L341.288 212.171C351.909 206.033 360.502 191.153 360.502 178.895C360.502 166.638 351.928 161.672 341.307 167.791Z" fill="#FFFAEB"/>
<path d="M572.303 161.227C572.127 161.228 571.954 161.183 571.801 161.096L482.148 109.332C481.996 109.242 481.87 109.115 481.782 108.961C481.694 108.808 481.647 108.635 481.646 108.458C481.647 108.284 481.693 108.113 481.782 107.962C481.87 107.812 481.996 107.688 482.148 107.602L571.857 55.8011C572.008 55.7092 572.182 55.6605 572.359 55.6605C572.536 55.6605 572.71 55.7092 572.861 55.8011L662.514 107.565C662.664 107.654 662.789 107.781 662.875 107.932C662.962 108.084 663.007 108.256 663.007 108.43C663.007 108.605 662.962 108.776 662.875 108.928C662.789 109.08 662.664 109.206 662.514 109.295L572.861 161.059C572.697 161.171 572.502 161.229 572.303 161.227ZM484.641 108.458L572.303 159.088L659.965 108.458L572.303 57.8471L484.641 108.458Z" fill="#FFFAEB"/>
<path d="M656.357 88.9457V71.9824L572.303 118.353L488.249 71.9824V88.9457L572.303 137.473L656.357 88.9457Z" fill="url(#paint5_linear)"/>
<path opacity="0.5" d="M488.249 88.1086V88.9456L572.303 137.473L656.357 88.9456V88.1086L572.303 136.636L488.249 88.1086Z" fill="white"/>
<path d="M572.303 120.509L488.249 71.9814L572.303 23.4351L656.357 71.9814L572.303 120.509Z" fill="url(#paint6_linear)"/>
<path opacity="0.5" d="M572.303 119.116L489.458 71.2764L488.249 71.9832L572.303 120.511L656.357 71.9832L655.148 71.2764L572.303 119.116Z" fill="white"/>
<path d="M572.302 101.985L520.334 71.9833L572.302 41.9813L624.271 71.9833L572.302 101.985Z" fill="#8D2B0B"/>
<path opacity="0.5" d="M572.302 101.985L520.334 71.9833L572.302 41.9813L624.271 71.9833L572.302 101.985Z" fill="#FCE588"/>
<path opacity="0.5" d="M572.301 0L624.27 30.002V71.9825L572.301 41.9805V0Z" fill="#FFFAEB"/>
<path opacity="0.5" d="M572.302 41.9805L520.334 71.9825V30.002L572.302 0V41.9805Z" fill="#FCE588"/>
<path opacity="0.5" d="M572.302 60.004L520.334 30.002L572.302 0L624.271 30.002L572.302 60.004Z" fill="url(#paint7_linear)"/>
<path opacity="0.5" d="M572.302 60.004L520.334 30.002L572.302 0L624.271 30.002L572.302 60.004Z" fill="url(#paint8_linear)"/>
<path opacity="0.5" d="M572.302 58.9622L521.245 29.481L520.334 30.0018L572.302 60.0038L624.271 30.0018L623.36 29.481L572.302 58.9622Z" fill="url(#paint9_linear)"/>
<path opacity="0.5" d="M572.301 60.0042V101.985L624.27 71.9827V30.0022L572.301 60.0042Z" fill="#FFFAEB"/>
<path opacity="0.5" d="M520.334 30.0022V71.9827L572.302 101.985V60.0042L520.334 30.0022Z" fill="#FFF3C4"/>
<defs>
<linearGradient id="paint0_linear" x1="176.938" y1="383.572" x2="570.684" y2="383.572" gradientUnits="userSpaceOnUse">
<stop stop-color="#FFFAEB"/>
<stop offset="0.15" stop-color="#FFFAEB"/>
<stop offset="0.33" stop-color="#FFFAEB"/>
<stop offset="0.52" stop-color="#FFF3C4"/>
<stop offset="0.72" stop-color="#FCE588"/>
<stop offset="0.93" stop-color="#FFF3C4"/>
<stop offset="1" stop-color="#FADB5F"/>
</linearGradient>
<linearGradient id="paint1_linear" x1="69761.4" y1="45386" x2="166682" y2="45386" gradientUnits="userSpaceOnUse">
<stop stop-color="#FFF3C4"/>
<stop offset="0.0001" stop-color="#FFF3C4"/>
<stop offset="0.29" stop-color="#FFF7D9"/>
<stop offset="0.64" stop-color="#FFFAEB"/>
<stop offset="1" stop-color="#FFFBF0"/>
</linearGradient>
<linearGradient id="paint2_linear" x1="22386.8" y1="12713.3" x2="28734.9" y2="12713.3" gradientUnits="userSpaceOnUse">
<stop stop-color="#FFEB9C"/>
<stop offset="0.29" stop-color="#FFF3C3"/>
<stop offset="0.64" stop-color="#FDF1CC"/>
<stop offset="1" stop-color="#FFFAEB"/>
</linearGradient>
<linearGradient id="paint3_linear" x1="139.626" y1="474.657" x2="205.191" y2="260.161" gradientUnits="userSpaceOnUse">
<stop offset="0.5" stop-color="#FFF3C4"/>
<stop offset="0.541667" stop-color="#FFF3C4"/>
<stop offset="0.58" stop-color="#FFF3C4"/>
<stop offset="0.66" stop-color="#FFF3C4"/>
<stop offset="0.76" stop-color="#FCE588"/>
<stop offset="0.86" stop-color="#FADB5F"/>
<stop offset="0.932292" stop-color="#FADB5F"/>
<stop offset="0.96" stop-color="#FADB5F"/>
<stop offset="1" stop-color="#FADB5F"/>
</linearGradient>
<radialGradient id="paint4_radial" cx="0" cy="0" r="1" gradientUnits="userSpaceOnUse" gradientTransform="translate(246.205 188.085) scale(56.8792)">
<stop stop-color="#CB6E17"/>
<stop offset="1" stop-color="#CB6E17"/>
</radialGradient>
<linearGradient id="paint5_linear" x1="488.249" y1="104.719" x2="608.034" y2="104.719" gradientUnits="userSpaceOnUse">
<stop offset="0.25" stop-color="#FADB5F"/>
<stop offset="0.44" stop-color="#FCE588"/>
<stop offset="0.82" stop-color="#FFF3C4"/>
<stop offset="1" stop-color="#FFFAEB"/>
</linearGradient>
<linearGradient id="paint6_linear" x1="44540.9" y1="3780.2" x2="59734.5" y2="3780.2" gradientUnits="userSpaceOnUse">
<stop stop-color="#FCE588"/>
<stop offset="0.29" stop-color="#FFF3C4"/>
<stop offset="0.64" stop-color="#FFF8DE"/>
<stop offset="1" stop-color="#FFFAEB"/>
</linearGradient>
<linearGradient id="paint7_linear" x1="29550.1" y1="967.864" x2="35358.1" y2="967.864" gradientUnits="userSpaceOnUse">
<stop stop-color="#FFFAEB"/>
<stop offset="0.15" stop-color="#FFFAEB"/>
<stop offset="0.296875" stop-color="#FFF3C4"/>
<stop offset="0.442708" stop-color="#FFF3C4"/>
<stop offset="0.682292" stop-color="#FFE478"/>
<stop offset="0.885417" stop-color="#FED563"/>
<stop offset="1" stop-color="#FFDC4E"/>
</linearGradient>
<linearGradient id="paint8_linear" x1="29550.1" y1="967.864" x2="35358.1" y2="967.864" gradientUnits="userSpaceOnUse">
<stop stop-color="#FFFAEB"/>
<stop offset="0.15" stop-color="#FFFAEB"/>
<stop offset="0.296875" stop-color="#FFF3C4"/>
<stop offset="0.442708" stop-color="#FFF3C4"/>
<stop offset="0.682292" stop-color="#FFE478"/>
<stop offset="0.885417" stop-color="#FED563"/>
<stop offset="1" stop-color="#FFDC4E"/>
</linearGradient>
<linearGradient id="paint9_linear" x1="32454.1" y1="654.893" x2="32454.1" y2="-1050.72" gradientUnits="userSpaceOnUse">
<stop stop-color="#FFFAEB"/>
<stop offset="0.15" stop-color="#FFF3C4"/>
<stop offset="0.33" stop-color="#FFF3C4"/>
<stop offset="0.52" stop-color="#FFF3C4"/>
<stop offset="0.72" stop-color="#FCE588"/>
<stop offset="0.93" stop-color="#FCE588"/>
<stop offset="1" stop-color="#FADB5F"/>
</linearGradient>
</defs>
</svg>
